<svg xmlns="http://www.w3.org/2000/svg" viewBox="0 0 88.66 125.543"><defs><style>.a{fill:#fff;}</style></defs><g transform="translate(-19.67 -1)"><path class="a" d="M19.67,26l8.069,90.493,36.206,10.05,36.307-10.063L108.33,26H19.67ZM88.88,76.488,86.53,98.38l.009,1.875L64,106.55h0l-.018.015-22.719-6.225L39.726,83H50.867l.79,8.766L64,95.061l0,.015v-.032l12.394-3.5L77.7,77H51.795l-.222-2.355L51.067,69,50.8,66H78.688L79.7,55H37.229l-.223-2.589-.506-6.03L36.235,43h55.6l-.267,3.334L88.88,76.488"/><path class="a" d="M89,14.374,81.851,6H89V1H73V5.363L81.39,13H73v5H89Zm-19,0L63.193,6H70V1H55V5.363L62.733,13H55v5H70ZM52,13H44V6h8V1H38V18H52Z"/></g></svg>