<svg xmlns="http://www.w3.org/2000/svg" viewBox="0 0 126.263 126.234"><defs><style>.a{fill:#fff;}</style></defs><path class="a" d="M124.742,58.378,69.625,3.264a8.131,8.131,0,0,0-11.5,0L46.685,14.71,61.2,29.228A9.653,9.653,0,0,1,73.428,41.535L87.42,55.529a9.661,9.661,0,1,1-5.794,5.453L68.578,47.933l0,34.341A9.631,9.631,0,1,1,57.145,84.1,10.3,10.3,0,0,1,60,81.992V47.333a10.22,10.22,0,0,1-2.856-2.111,9.622,9.622,0,0,1-1.928-10.576L40.983,20.333,3.229,58.123a8.133,8.133,0,0,0,.02,11.5l55.126,55.114a8.138,8.138,0,0,0,11.5,0l54.86-54.858a8.135,8.135,0,0,0,0-11.5Z" transform="translate(-0.858 -0.884)"/></svg>