<svg xmlns="http://www.w3.org/2000/svg" viewBox="0 0 88.862 124.974"><defs><style>.a{fill:#fff;}</style></defs><path class="a" d="M19.569,27l8.087,89.919L63.945,126.6l36.39-9.5,8.1-90.1ZM91.61,47.471,91.1,53.305,90.88,56H48.311l1.017,12h40.54L89.6,70.231,86.982,99.14l-.192,1.69L64,106.964v0l-.027.012L41.2,101.055,39.65,84H50.818l.791,8.46L63.994,95.6,64,95.365v.012l12.412-2.649L77.708,79H39.153L36.419,48.164,36.152,45H91.876l-.266,2.471ZM27.956,1.627h5.622V7.183h5.144V1.627h5.623V18.449H38.722V12.816H33.579v5.633H27.956V1.627ZM51.738,7.206h-4.95V1.627H62.313V7.206H57.361V18.449H51.738V7.206ZM64.777,1.627h5.862l3.607,5.911,3.6-5.911h5.865V18.449h-5.6V10.111l-3.867,5.981h-.1l-3.87-5.981v8.338h-5.5V1.627Zm21.736,0h5.624V12.889h7.907V18.45H86.513V1.627Z" transform="translate(-19.569 -1.627)"/></svg>