<svg xmlns="http://www.w3.org/2000/svg" viewBox="0 0 125 125"><defs><style>.a{fill:#fff;}</style></defs><path class="a" d="M2,1V126H127V1ZM68.119,107.513a14.781,14.781,0,0,1-9.448,7.4c-6.271,1.44-12.269.619-16.731-2.059a18.816,18.816,0,0,1-6.9-7.9l9.52-5.83a6.024,6.024,0,0,1,.667,1.071c1.214,2.034,2.261,3.474,4.319,4.485,2.022.69,6.461,1.131,8.175-2.427,1.047-1.81.714-7.628.714-14.065,0-10.115.046-20.188.046-30.188H70.189c0,11,.06,21.418,0,32.152.025,6.58.6,12.446-2.07,17.361Zm48.574-3.308c-4.07,13.922-26.762,14.374-35.83,5.176-1.916-2.165-3.117-3.3-4.26-5.795,4.819-2.772,4.819-2.772,9.508-5.485,2.547,3.915,4.9,6.068,9.139,6.949,5.748.7,11.531-1.273,10.234-7.378-1.333-4.986-11.77-6.2-18.873-11.531C79.4,81.3,77.71,69.53,83.636,62.806a16.729,16.729,0,0,1,8.877-5.235l3.688-.477c7.081-.143,11.507,1.727,14.756,5.355a23.37,23.37,0,0,1,3.022,4.045c-3.772,2.4-3.76,2.381-9.163,5.879a8.718,8.718,0,0,0-5.093-4.724c-3.142-.952-7.1.083-7.926,3.4a6.463,6.463,0,0,0,.227,3.665c1.273,2.9,5.545,4.165,9.377,5.926,11.031,4.474,14.756,9.271,15.672,14.981a17.172,17.172,0,0,1-.38,8.581Z" transform="translate(-2 -1)"/></svg>