<svg xmlns="http://www.w3.org/2000/svg" viewBox="0 0 87.587 123.952"><defs><style>.a{fill:#fff;}</style></defs><g transform="translate(-20.206 -2.101)"><path class="a" d="M40,68V57.921C40,50.948,46.218,45,53.383,45h21.1C80.359,45,84,39.96,84,34.062V13.945C84,8.219,79.694,3.919,73.96,2.964A62.8,62.8,0,0,0,63.217,2.1a63.729,63.729,0,0,0-10.374.862C43.9,4.542,42,7.848,42,13.945V22H63v3H34.891c-6.14,0-11.516,3.53-13.2,10.552-1.939,8.047-2.025,13.2,0,21.6C23.195,63.411,26.782,68,32.921,68H40ZM52.054,16.628a4.026,4.026,0,1,1,3.964-4.013A3.987,3.987,0,0,1,52.054,16.628Zm54.121,18.924C104.658,29.438,101.759,25,95.612,25H87v9.062C87,41.335,81.516,48,74.485,48h-21.1C47.6,48,42,52.4,42,58.193V78.31c0,5.725,5.388,9.093,10.974,10.734a34.3,34.3,0,0,0,20.782,0C79.074,87.5,84,84.406,84,78.31V71H63V68H95.611c6.14,0,8.428-4.416,10.563-10.843,2.206-6.618,2.112-13.115,0-21.6ZM75.814,75.625a4.027,4.027,0,1,1-3.963,4.015A3.988,3.988,0,0,1,75.814,75.625Z"/><path class="a" d="M34.911,112.049q0-5.635-3.214-5.791a6.031,6.031,0,0,0-2.495.409,3.671,3.671,0,0,0-1.311.692v8.968a6.368,6.368,0,0,0,3.649,1.2Q34.91,117.3,34.911,112.049Zm2.643.157a7.965,7.965,0,0,1-1.348,4.753,4.969,4.969,0,0,1-4.172,2.2,7.4,7.4,0,0,1-4.142-1.258v8.151l-2.3-.82V107.14a5.133,5.133,0,0,1,1.451-1.2,9.961,9.961,0,0,1,4.987-1.228l.033.032a4.575,4.575,0,0,1,4.134,2.2,9.364,9.364,0,0,1,1.355,5.257Z"/><path class="a" d="M51.6,117.555a12.709,12.709,0,0,1-.77,5.318,5.427,5.427,0,0,1-2.945,2.359,11.271,11.271,0,0,1-3.808.757l-.38-1.448a18.3,18.3,0,0,0,2.928-.566,3.865,3.865,0,0,0,2.3-1.73,8.678,8.678,0,0,0,.5-3.618v-.6a11.809,11.809,0,0,1-4.941,1.068,4.542,4.542,0,0,1-2.99-1.068,3.638,3.638,0,0,1-1.449-2.958V105.5l2.3-.787v9.63a2.926,2.926,0,0,0,1,2.376,3.769,3.769,0,0,0,2.578.8A6.44,6.44,0,0,0,49.3,116.3V105.064h2.3v12.491Z"/><path class="a" d="M60.576,119.034c-.274.022-.525.032-.757.032a4.525,4.525,0,0,1-3.038-.93,3.216,3.216,0,0,1-1.084-2.573v-9.054H54.123v-1.446H55.7v-3.84l2.3-.817v4.657h2.583v1.446H57.993V115.5a2.174,2.174,0,0,0,.694,1.83,3.505,3.505,0,0,0,1.889.506v1.2Z"/><path class="a" d="M74.493,118.845h-2.3v-8.873a4.2,4.2,0,0,0-.631-2.329,2.3,2.3,0,0,0-2.024-1.1,7.461,7.461,0,0,0-3.954,1.668v10.636h-2.3V97.637l2.3-.725v9.659a8.014,8.014,0,0,1,4.816-1.6,3.837,3.837,0,0,1,2.958,1.228,4.321,4.321,0,0,1,1.134,3.053v9.6h0Z"/><path class="a" d="M86.711,111.688a7.06,7.06,0,0,0-.82-3.579,3.431,3.431,0,0,0-3.021-1.818q-3.78.219-3.778,5.412a8.9,8.9,0,0,0,.79,3.976,3.175,3.175,0,0,0,3.033,2q3.8-.03,3.8-5.993Zm2.518.015a8.177,8.177,0,0,1-1.575,5.131,5.664,5.664,0,0,1-4.783,2.3,5.551,5.551,0,0,1-4.723-2.3,8.291,8.291,0,0,1-1.542-5.131,7.322,7.322,0,0,1,1.668-4.879,5.744,5.744,0,0,1,4.627-2.107,5.841,5.841,0,0,1,4.66,2.107,7.327,7.327,0,0,1,1.668,4.879Z"/><path class="a" d="M102.407,118.845h-2.3v-9.376a3.138,3.138,0,0,0-.928-2.409,3.373,3.373,0,0,0-2.472-.833,5.538,5.538,0,0,0-3.116,1.069v11.549h-2.3V107.012a11.32,11.32,0,0,1,3.652-1.886,11.147,11.147,0,0,1,2.771-.41,7.247,7.247,0,0,1,1.542.158,4.441,4.441,0,0,1,2.2,1.164,3.085,3.085,0,0,1,.946,2.267v10.54Z"/></g></svg>