<svg xmlns="http://www.w3.org/2000/svg" viewBox="0 0 101.8 124.17"><defs><style>.a{fill:#fff;}</style></defs><g transform="translate(-13.1 -2.1)"><circle class="a" cx="9.3" cy="9.3" r="9.3" transform="translate(54.7 38.2)"/><path class="a" d="M64,81.7C71.3,88.8,78.5,93,84.3,93a10.048,10.048,0,0,0,5.2-1.3c5.2-3,7.1-10.5,5.3-21.2-.3-1.9-.7-3.8-1.2-5.8,2-.6,3.8-1.2,5.6-1.8,10.1-3.9,15.7-9.3,15.7-15.2,0-6-5.6-11.4-15.7-15.2a45.873,45.873,0,0,0-5.6-1.8c.5-2,.9-3.9,1.2-5.8C96.5,14,94.6,6.4,89.4,3.4a10.048,10.048,0,0,0-5.2-1.3c-5.7,0-13,4.2-20.3,11.3C56.7,6.3,49.5,2.1,43.7,2.1a10.048,10.048,0,0,0-5.2,1.3c-5.2,3-7.1,10.5-5.3,21.2.3,1.9.7,3.8,1.2,5.8-2,.6-3.8,1.2-5.6,1.8-10.1,3.9-15.7,9.3-15.7,15.2,0,6,5.6,11.4,15.7,15.2a45.874,45.874,0,0,0,5.6,1.8c-.5,2-.9,3.9-1.2,5.8-1.7,10.7.2,18.3,5.3,21.2a10.048,10.048,0,0,0,5.2,1.3c5.8.2,13-4,20.3-11ZM58.4,68.2c1.8.1,3.7.1,5.6.1s3.8,0,5.6-.1c-1.8,2.4-3.7,4.6-5.6,6.7C62.1,72.8,60.2,70.6,58.4,68.2ZM46,57.9c1,1.7,1.9,3.3,3,4.9-3.1-.4-6-.9-8.8-1.5.9-2.7,1.9-5.5,3.1-8.3.8,1.6,1.7,3.3,2.7,4.9ZM40.2,33.8c2.8-.6,5.7-1.1,8.8-1.5-1,1.6-2,3.2-3,4.9s-1.9,3.3-2.7,5A66.851,66.851,0,0,1,40.2,33.8Zm5.5,13.7c1.3-2.7,2.7-5.4,4.3-8.1,1.5-2.6,3.2-5.2,4.9-7.8,3-.2,6-.3,9.1-.3,3.2,0,6.2.1,9.1.3,1.8,2.6,3.4,5.2,4.9,7.8,1.6,2.7,3,5.4,4.3,8.1-1.3,2.7-2.7,5.4-4.3,8.1-1.5,2.6-3.2,5.2-4.9,7.8-3,.2-6,.3-9.1.3-3.2,0-6.2-.1-9.1-.3-1.8-2.6-3.4-5.2-4.9-7.8-1.6-2.7-3-5.4-4.3-8.1Zm39.1-5.4-2.7-5c-1-1.7-1.9-3.3-3-4.9,3.1.4,6,.9,8.8,1.5-.9,2.8-1.9,5.6-3.1,8.4Zm0,10.8c1.2,2.8,2.2,5.6,3.1,8.3-2.8.6-5.7,1.1-8.8,1.5,1-1.6,2-3.2,3-4.9.9-1.5,1.8-3.2,2.7-4.9Zm2.3,34.7a5.426,5.426,0,0,1-2.9.7c-4.9,0-11-4-17-10a104.7,104.7,0,0,0,8.5-10.5,91.584,91.584,0,0,0,13.4-2.1,51.69,51.69,0,0,1,1.1,5.4C91.6,79.6,90.5,85.7,87.1,87.6Zm5.2-52.7c11.2,3.2,17.9,8.1,17.9,12.6,0,3.9-4.6,7.8-12.7,10.9-1.6.6-3.4,1.2-5.2,1.7a105.1,105.1,0,0,0-4.9-12.6,90.573,90.573,0,0,0,4.9-12.6Zm-8-28.2a5.664,5.664,0,0,1,2.9.7c3.3,1.9,4.5,7.9,3.1,16.5-.3,1.7-.7,3.5-1.1,5.4a129.775,129.775,0,0,0-13.4-2.1,92.392,92.392,0,0,0-8.5-10.5C73.3,10.8,79.4,6.7,84.3,6.7ZM69.6,26.8c-1.8-.1-3.7-.1-5.6-.1s-3.8,0-5.6.1c1.8-2.4,3.7-4.6,5.6-6.7,1.9,2.1,3.8,4.4,5.6,6.7ZM40.9,7.4a5.426,5.426,0,0,1,2.9-.7c4.9,0,11,4,17,10a104.7,104.7,0,0,0-8.5,10.5,91.584,91.584,0,0,0-13.4,2.1,51.691,51.691,0,0,1-1.1-5.4c-1.4-8.5-.3-14.5,3.1-16.5ZM35.7,60.1C24.5,56.9,17.8,52,17.8,47.5c0-3.9,4.6-7.8,12.7-10.9,1.6-.6,3.4-1.2,5.2-1.7a105.1,105.1,0,0,0,4.9,12.6A95.685,95.685,0,0,0,35.7,60.1Zm2.1,11c.3-1.7.7-3.5,1.1-5.4a129.774,129.774,0,0,0,13.4,2.1,92.392,92.392,0,0,0,8.5,10.5c-6,5.9-12.1,10-17,10a5.664,5.664,0,0,1-2.9-.7C37.5,85.7,36.4,79.6,37.8,71.1Zm-4.2,41.2a8.154,8.154,0,0,0,1.1-8.7,7.043,7.043,0,0,0-6.8-4.5c-3.7-.1-7.5,0-11.2,0H16V125h3v-9.8h4.7a1.513,1.513,0,0,1,1.4.7l6,9.3c.1.2.4.5.6.5h3.9c-2.4-3.7-4.7-7.2-7.1-10.8A7.26,7.26,0,0,0,33.6,112.3ZM19,112.1v-9.9h1.1c2.3,0,4.7-.1,7,.1a4.72,4.72,0,0,1,4.6,4.9,4.974,4.974,0,0,1-4.9,4.9c-2.4.1-4.8,0-7.8,0Zm38.7,1.3c-1.6-7-8-8.8-12.9-6.6-3.8,1.7-5.5,5-5.6,9.1a9.7,9.7,0,0,0,3.2,8c2.7,2.4,6,2.7,9.4,2.1a9.171,9.171,0,0,0,4.9-2.7c-.5-.7-1-1.4-1.5-2-2.8,2.4-5.9,3.2-9.3,1.6-2.2-1.1-3.3-3.8-3.5-5.8H57.9v-1.3a6.168,6.168,0,0,0-.2-2.4ZM42.6,115c-.3-3,2.7-6.2,6-6.2,3.8-.1,6.2,2.2,6.3,6.2Zm30.7-8.7a17.82,17.82,0,0,0-4.6-.3,9.509,9.509,0,0,0-6.2,3.1c.5.7.9,1.4,1.5,2.2a2.651,2.651,0,0,1,.6-.5,7.249,7.249,0,0,1,5.8-2.1c1.8.1,3.5.7,4,2.5a21.192,21.192,0,0,1,.4,4.4.588.588,0,0,1-.5-.2,8.637,8.637,0,0,0-8-1.7,5.954,5.954,0,0,0-4.6,5.5,6.105,6.105,0,0,0,3.9,6.5,9.039,9.039,0,0,0,5.4.3c1.4-.3,2-1.1,4-2.2v1.3h2.8c0-4,.1-8.9,0-13.5,0-2.9-1.7-4.7-4.5-5.3Zm1.4,12.6a2.719,2.719,0,0,0,0,.9c0,2.1-.5,2.8-2.5,3.6a6.632,6.632,0,0,1-4.4.2,3.934,3.934,0,0,1-2.9-3.7,3.873,3.873,0,0,1,2.7-3.9,6.516,6.516,0,0,1,6.3,1.1A1.676,1.676,0,0,1,74.7,118.9ZM90.3,109a5.934,5.934,0,0,1,6.8,1.9l.3.2c.7-.6,1.3-1.2,2.1-1.9a4.173,4.173,0,0,1-.6-.8c-2.9-3.1-8.6-3.5-12.1-1C81.9,111,82,118,84.4,121.7c2.3,3.5,5.6,4.7,9.5,4.2a8.432,8.432,0,0,0,5.7-3.3c-.7-.6-1.4-1.2-2.1-1.9a1.756,1.756,0,0,0-.4.5,6.126,6.126,0,0,1-9.6-.5,7.906,7.906,0,0,1-1.3-6.3,5.861,5.861,0,0,1,4.1-5.4Zm20.8,13.6a1.238,1.238,0,0,0-.3.2,2.532,2.532,0,0,1-2.5.4c-.9-.4-1-1.2-1.1-2V109.8c0-.2,0,.2.1-.8h3.8v-3h-4v-5h-3v5.4h-2.6c-.2,0-.5.2-.5.4a15.984,15.984,0,0,0,0,2.2h3.2v12.8c0,1.6.4,3,1.8,3.8a5.793,5.793,0,0,0,5.7-.4c.2-.1.3-.5.3-.6C111.7,124,111.4,123.3,111.1,122.6Z"/></g></svg>