<svg xmlns="http://www.w3.org/2000/svg" viewBox="0 0 125.554 93.902"><defs><style>.a{fill:#fff;fill-rule:evenodd;}</style></defs><path class="a" d="M1.219,56.156a5.537,5.537,0,0,0,.323,1.618A19.884,19.884,0,0,0,5.851,65.52,51.069,51.069,0,0,0,15.4,73.9c2.988,2.148,6.037,4.248,9.037,6.38.515.366,1,.787,1.561,1.236-.481.26-.881.489-1.3.7A69.419,69.419,0,0,0,13.427,89.2,23.069,23.069,0,0,0,7.82,94.879C5.495,98.551,4.672,102.463,6.4,106.64a6.943,6.943,0,0,0,2.367,3.053,3.5,3.5,0,0,0,1.162.6c1.058.249,2.136.412,3.207.609l3.033,0a18.87,18.87,0,0,0,9.166-3.352,20.113,20.113,0,0,0,8.466-12.087,21.335,21.335,0,0,0-.125-11.153c-.1-.344-.224-.681-.354-1.014s-.283-.657-.463-1.072l6.876-3.954.1.088c-.125.409-.258.817-.371,1.23A27.848,27.848,0,0,0,38.307,88.7a17.5,17.5,0,0,0,3.061,9.146,4.435,4.435,0,0,0,6.944.075A16.014,16.014,0,0,0,49.9,95.411c1.121-2.315,2.159-4.671,3.23-7.011l.187-.428c-.077,1.108-.167,2.081-.208,3.055a11.644,11.644,0,0,0,.545,4.48,3.094,3.094,0,0,0,2.62,2.326,3.294,3.294,0,0,0,2.456-.9,10.384,10.384,0,0,0,2.691-3.2c1.9-3.491,3.853-6.961,5.576-10.54,1.864-3.871,3.494-7.855,5.225-11.792l.286-.7c.409,1.607.694,3.181,1.219,4.671a44.146,44.146,0,0,0,2.187,5.058,1.513,1.513,0,0,1-.195,1.928c-2.256,2.72-4.473,5.473-6.692,8.223a18.472,18.472,0,0,0-1.389,1.888,3.7,3.7,0,0,0-.48,1.364,1.737,1.737,0,0,0,1.383,1.971A9.661,9.661,0,0,0,71.25,96a15.861,15.861,0,0,0,8.4-3.157c3.221-2.386,4.255-5.642,3.475-9.5a22.073,22.073,0,0,0-.947-3.074,1.136,1.136,0,0,1,.123-1.2A97.849,97.849,0,0,0,89.117,67.5a2.384,2.384,0,0,1,.306-.482,30.041,30.041,0,0,0,3.449,9.792c-.912.879-1.815,1.676-2.632,2.554a17.607,17.607,0,0,0-4.173,6.6,7.791,7.791,0,0,0-.463,3.4,2.869,2.869,0,0,0,3.543,2.6,16.1,16.1,0,0,0,9.612-5.925,7.79,7.79,0,0,0,1.1-7.113c-.188-.688-.411-1.365-.651-2.154.951-.295,1.878-.649,2.837-.868a25.145,25.145,0,0,1,14.7.86,11.1,11.1,0,0,1,6.406,5.571c1.639,3.379.733,6.585-2.452,8.721a5.463,5.463,0,0,0-.883.605.869.869,0,0,0-.205.67c.021.123.346.277.533.275a4.875,4.875,0,0,0,2.711-1.121,8.349,8.349,0,0,0,3.853-5.817l.063-.188-.077-1.63c-.031-.094.023-.187.016-.258a12.782,12.782,0,0,0-5.213-8.688,19.015,19.015,0,0,0-11.249-3.788,25.4,25.4,0,0,0-9.765,1.5c-.9.325-1.786.71-2.688,1.073-.121-.219-.251-.429-.358-.646-.926-1.9-2.048-3.708-2.3-5.882a13.168,13.168,0,0,1-.025-4.613c.353-1.469.813-2.913,1.246-4.362a1.062,1.062,0,0,0-.646-1.5,2.854,2.854,0,0,0-.786-.258,12.106,12.106,0,0,0-5.171.384A1.481,1.481,0,0,0,88.592,58c-.076.381-.231.746-.339,1.122a28.062,28.062,0,0,1-1.473,4.645c-1.794,3.735-3.842,7.329-5.938,10.9-.227.385-.466.763-.752,1.23a16.12,16.12,0,0,1-1.759-4.542,13.94,13.94,0,0,1-.025-5.479c.339-1.356.782-2.687,1.19-4.025a.932.932,0,0,0-.472-1.305,2.775,2.775,0,0,0-.948-.368,11.643,11.643,0,0,0-5.354.438,1.446,1.446,0,0,0-.994,1.087,41.921,41.921,0,0,1-1.589,4.915c-2.774,6.36-5.628,12.687-8.479,19.013-.6,1.321-1.292,2.6-1.963,3.882a9.014,9.014,0,0,1-.63.919.75.75,0,0,1-.235-.477,13.167,13.167,0,0,1,.063-2.436c.469-2.378,1.009-4.743,1.578-7.1.47-1.946,1.017-3.874,1.538-5.807a1.823,1.823,0,0,0-.287-1.8,2.685,2.685,0,0,0-3.381-.409l-.428.242.083-.69a10.749,10.749,0,0,0-.161-4.41,3.509,3.509,0,0,0-3.686-2.8,7.917,7.917,0,0,0-2.613.5,19.76,19.76,0,0,0-8.286,6.568,2.592,2.592,0,0,1-.757.654c-2.893,1.6-5.795,3.188-8.7,4.778L30.57,79.009c-.866-.826-1.653-1.683-2.546-2.41-2.727-2.224-5.5-4.393-8.244-6.592a32.493,32.493,0,0,1-6.6-6.56,11.743,11.743,0,0,1-2.29-6.4,15.01,15.01,0,0,1,2.293-8.362A32.078,32.078,0,0,1,20.8,40.363a70.51,70.51,0,0,1,10.008-6.639A75.493,75.493,0,0,1,46.153,26.95a42.422,42.422,0,0,1,16.965-1.929,17.431,17.431,0,0,1,6.527,1.9,6.734,6.734,0,0,1,3.428,3.716,9.292,9.292,0,0,1,.162,5.2,19.865,19.865,0,0,1-5.195,9.05,35.108,35.108,0,0,1-14.351,9.091,39.478,39.478,0,0,1-9.765,2.083,18.389,18.389,0,0,1-7.985-.962,10.387,10.387,0,0,1-4.4-2.987c-.214-.25-.488-.521-.887-.287a.758.758,0,0,0-.329.979,9.59,9.59,0,0,0,.762,1.838,10.469,10.469,0,0,0,3.483,3.3,17.041,17.041,0,0,0,8.66,2.377,43.566,43.566,0,0,0,13.654-1.74,33.5,33.5,0,0,0,16.384-9.884c3.706-4.13,6.353-8.791,6.92-14.419a13.957,13.957,0,0,0-1.3-7.944A14.36,14.36,0,0,0,72.618,20.2,26.523,26.523,0,0,0,60.286,17h-4.31c-5.21,0-10.247,1.493-15.143,3.274a104.023,104.023,0,0,0-10.868,4.7C22.282,28.816,15.127,33.445,9.25,39.81A30.936,30.936,0,0,0,2.417,50.6C2,51.806,1.6,53.1,1.306,54.346M29.145,90.359a15.894,15.894,0,0,1-5.657,11,12.868,12.868,0,0,1-6.471,3.23,4.75,4.75,0,0,1-2.694-.188,2.749,2.749,0,0,1-1.548-2.814A10.18,10.18,0,0,1,14.3,96.4,18.538,18.538,0,0,1,19.037,91.2,72.656,72.656,0,0,1,28.3,84.952l.243-.1a16.266,16.266,0,0,1,.6,5.507ZM54.3,70.98a33.643,33.643,0,0,1-.945,4.229,124.674,124.674,0,0,1-5.282,13.973A24.1,24.1,0,0,1,46.7,91.6a1.688,1.688,0,0,1-.283.334c-.578.571-1.126.541-1.418-.206a15.745,15.745,0,0,1-.729-2.716,14.392,14.392,0,0,1-.13-1.9,23.776,23.776,0,0,1,3.736-12.38,11.575,11.575,0,0,1,3.6-4.054,6.269,6.269,0,0,1,1.6-.706c.85-.239,1.372.154,1.231,1.006ZM71.467,92.848l6.169-7.2C77.893,88.32,73.346,93.66,71.467,92.848ZM91.17,88c-.436.25-.911.43-1.358.661-.409.212-.544,0-.556-.354a2.385,2.385,0,0,1,.093-.721A15.508,15.508,0,0,1,94,80.1l.16-.082A6.609,6.609,0,0,1,91.17,88Z" transform="translate(-1.219 -17)"/></svg>