<svg xmlns="http://www.w3.org/2000/svg" viewBox="0 0 121.587 125.226"><defs><style>.a{fill:#fff;fill-rule:evenodd;}</style></defs><path class="a" d="M59.628,114.382c-2.417-.216-4.859-.142-7.291-.161-.237,0-.477.26-.715.4.209.135.414.378.629.388a1.534,1.534,0,0,1,1.589,1.753c.021,2.23.049,4.463-.011,6.691-.038,1.381-.794,1.98-2.187,1.742a4.426,4.426,0,0,1-1.989-.817c-1.206-.982-2.291-2.114-3.516-3.272l.729-.272c1.9-.723,2.743-1.848,2.6-3.486a3.347,3.347,0,0,0-3.233-2.949c-2.377-.2-4.777-.147-7.167-.177-.181,0-.364.207-.547.318.183.157.36.445.548.453,1.356.052,1.684.893,1.679,2.045-.009,2.068-.014,4.136,0,6.2.006,1.124-.375,1.884-1.627,1.989-.209.018-.4.266-.6.408.245.127.488.36.736.364q2.8.045,5.6,0c.238,0,.472-.255.707-.392l-.625-.4c-.481-.306-1.267-.526-1.381-.935a15.948,15.948,0,0,1-.3-3.037l.447-.147c.287.32.589.627.858.961.892,1.1,1.754,2.231,2.668,3.316a1.567,1.567,0,0,0,.944.623c3.971-.028,7.952.026,11.909-.243a5.151,5.151,0,0,0,4.759-3.773c1.205-3.791-1.092-7.222-5.215-7.588ZM43,119.925v-4.516c1-.136,2.555-.324,3.188.752a3.484,3.484,0,0,1,.094,2.69C45.742,120.237,44,119.957,43,119.925Zm18.661,2.964a3.948,3.948,0,0,1-4.47,1.842,1.587,1.587,0,0,1-.78-1.187c-.07-2.695-.036-5.395-.036-8.18,1.951-.061,3.907-.244,5.083,1.6A6.031,6.031,0,0,1,61.661,122.889Zm39.111,1.74a4.576,4.576,0,0,1-3.2-.068c-1.653-.908-.585-2.676-.894-4.058,2.114-.189,2.108-.188,2.841,1.583.06.146.261.231.4.346.121-.214.342-.425.347-.641.031-1.38.025-2.761,0-4.141,0-.185-.19-.366-.39-.724-.345.77-.343,1.565-.793,1.886-.537.383-2.082.358-2.082.538v-4.065c1,.07,2.132.185,3.217.189,1.418,0,1.275,1.487,1.962,2.2l.3-.136-.2-3.214c-2.949-.377-9.75-.188-10.456.332.22.13.4.327.582.33,1.356.019,1.711.857,1.717,2.013.006,1.948.054,3.9.013,5.845-.049,2.319-1.375,3.078-3.317,1.748a31.653,31.653,0,0,1-3.491-3.135c1.037-1.035,2.216-1.766,2.726-2.818.932-1.928-.621-4.022-3.133-4.257-2.3-.214-4.619-.138-6.931-.16-.225,0-.451.21-.677.323.191.154.379.435.576.441,1.368.048,1.673.937,1.689,2.058q.036,2.436.038,4.87c0,2.6,0,2.6-2.247,3.508l-.156.3a3.247,3.247,0,0,0,.866.275q2.741.036,5.48,0a2.652,2.652,0,0,0,.812-.3c-.264-.175-.514-.468-.793-.5a1.466,1.466,0,0,1-1.418-1.534c-.055-.82-.012-1.647-.012-2.8a12.805,12.805,0,0,1,1.02.962c.926,1.13,1.868,2.25,2.726,3.432a1.757,1.757,0,0,0,1.633.773c4.141-.03,8.3-.013,12.439-.019a5.611,5.611,0,0,0,1.036-.086v-3.1c-1,.628-1.388,1.543-2.228,1.8ZM84,119.916v-4.485c2-.262,3.524.423,3.584,2.121C87.646,119.313,87,120.021,84,119.916ZM26.365,111.2c-.87-.695-6.152-.641-6.827.108a8.042,8.042,0,0,0,1.05.274,1.134,1.134,0,0,1,1.1,1.618c-.778,2.521-1.637,5.017-2.564,7.829-.21-.539-.3-.75-.375-.969-.9-2.728-1.791-5.46-2.722-8.179a5.607,5.607,0,0,0-.729-1.14,5.211,5.211,0,0,0-.737,1.1c-1.025,2.937-2.008,5.887-3,8.834l-.267.03c-.735-2.229-1.481-4.452-2.2-6.686-.573-1.766-.441-1.977,1.378-2.526a1.994,1.994,0,0,0,.508-.367c-.156-.132-.312-.378-.47-.379q-3.408-.038-6.819,0c-.159,0-.317.245-.475.375.126.121.248.344.38.35,2.022.1,2.517,1.628,3.012,3.167q1.731,5.376,3.474,10.751a11.641,11.641,0,0,0,.547,1.207l.354-.022,3.62-10.788c1.255,3.795,2.417,7.308,3.578,10.821l.422-.03c.151-.388.319-.771.452-1.166,1.278-3.8,2.56-7.605,3.818-11.415.47-1.425,1.234-2.457,2.884-2.521a1.973,1.973,0,0,0,.618-.279Zm48.57-.195a88.353,88.353,0,0,0-8.863-.247c-.152,0-.309.25-.588.491a3.826,3.826,0,0,0,.805.256,1.975,1.975,0,0,1,2.072,2.206q.056,4.622,0,9.243c-.019,1.271-.567,2.18-2.03,2.235-.225.009-.438.307-.656.472a2.318,2.318,0,0,0,.785.336q3.285.039,6.574,0c.251,0,.5-.237.75-.363-.229-.154-.445-.422-.685-.442-1.061-.091-1.811-.536-1.924-1.65-.135-1.317-.182-2.645-.274-4.1,1.048,0,1.942.068,2.823-.013,2.088-.19,3.933-.875,4.681-3.064a4.034,4.034,0,0,0-3.467-5.36Zm.418,5.783c-.646,1.189-1.353,1.445-4.353,1.167v-5.888c1,.057,3.176-.4,4.236,1.154A3.267,3.267,0,0,1,75.353,116.789Zm-39.627-1.337a7.637,7.637,0,0,0-9.733.171,5.836,5.836,0,0,0-.711,8.192,7.369,7.369,0,0,0,5.794,2.647,11.564,11.564,0,0,0,1.542-.2c2.618-.664,4.544-2.126,5.219-4.856a5.631,5.631,0,0,0-2.111-5.953Zm-1.758,8.423a3.972,3.972,0,0,1-6.549-.736,6.438,6.438,0,0,1-.384-5.18,3.837,3.837,0,0,1,3.939-2.967,3.872,3.872,0,0,1,3.964,2.949,20.166,20.166,0,0,1,.458,2.125l.224.147a16.4,16.4,0,0,1-1.652,3.662Zm88.132-4.589a31.99,31.99,0,0,1-3.215-1.7,1.654,1.654,0,0,1-.671-1.374,2.015,2.015,0,0,1,1.233-1.11c1.454-.436,2.728.462,3.318,2.117.117.329.584.6.795.891.086-.064.438-.13.438-.195v-4.376c-1,.449-.987.708-1.071.782a25.932,25.932,0,0,0-3.654-.42,3.194,3.194,0,0,0-1.683,5.9,8.349,8.349,0,0,0,1.141.665c.9.461,1.823.87,2.7,1.37.8.455,1.54,1.057,1.218,2.124-.355,1.166-1.357,1.292-2.381,1.187a3.741,3.741,0,0,1-3.325-2.94c-.079-.25-.349-.442-.528-.66-.115.141-.327.28-.33.423-.023,1.477-.015,2.954-.015,4.431l.38.116.857-1.126a16.458,16.458,0,0,0,1.728.811,4.411,4.411,0,0,0,5.462-2.173c.8-1.893-.042-3.545-2.4-4.738Zm-10.819-.016c-.978-.491-1.963-.965-2.926-1.483-.687-.367-1.336-.974-.886-1.729a2.586,2.586,0,0,1,1.727-1.018c1.329-.162,2.235.687,2.809,2.219a3.55,3.55,0,0,0,.62.814l.316-.212c0-1.216,0-2.431,0-3.646a2.554,2.554,0,0,0-.187-.535l-1.078.886c-.2-.1-.443-.243-.7-.354-2.1-.9-4.61-.182-5.429,1.556s.146,3.6,2.443,4.719c1.017.5,2.03,1,3.009,1.571.729.421,1.248,1.184.814,1.925a2.732,2.732,0,0,1-1.772,1.138,3.4,3.4,0,0,1-3.573-2.184c-.147-.328-.187-.71-.355-1.024-.091-.169-.353-.245-.537-.362-.1.156-.271.312-.273.471q-.035,1.947,0,3.9a.581.581,0,0,0,.266.456.59.59,0,0,0,.49-.208,4.972,4.972,0,0,0,.429-.821,17.428,17.428,0,0,0,1.719.827,4.469,4.469,0,0,0,5.517-2.077c.832-1.927-.018-3.613-2.436-4.825ZM64.172,97.7A48.077,48.077,0,0,0,112.1,49.531C112.1,23.384,90.76,1.849,65.26,1.394,38.48.917,16.1,22.648,16.1,49,16.087,76.109,37.434,97.738,64.172,97.7ZM64.094,3.727c25.432-.008,45.695,20.654,45.687,46.587C109.773,74.8,88.973,95.278,64.114,95.283A45.76,45.76,0,0,1,18.42,49.215c0-24.88,20.685-45.48,45.674-45.488ZM44.9,27.891c.416,1.385-.748,1.868-1.986,1.963-1.3.1-2.6.2-4.115.314,4.99,14.865,9.9,29.509,14.935,44.494a7.629,7.629,0,0,0,.572-.945c2.762-8.255,5.54-16.5,8.232-24.784a4.264,4.264,0,0,0-.146-2.531c-1.424-4.111-3.13-8.133-4.379-12.294-.855-2.849-1.988-4.692-5.354-4.362-.574.056-1.273-1.178-1.916-1.816.777-.463,1.548-1.316,2.332-1.328q10.284-.156,20.572.006c.785.013,1.557.889,2.335,1.364-.681.622-1.268,1.554-2.063,1.794a21.9,21.9,0,0,1-4.218.448C74.695,45.071,79.588,59.626,84.654,74.7c2.266-7.524,4.373-14.434,6.422-21.36,1.829-6.184.739-11.958-2.567-17.4a24.435,24.435,0,0,1-2.778-5.013,14.364,14.364,0,0,1-.832-6.382c.575-3.454,3.225-5.169,6.812-5.5C72.085.83,41.248,7.349,29.885,27.138c4.374-.2,8.55-.468,12.729-.524A2.853,2.853,0,0,1,44.9,27.891Zm7.819,60.258a6.87,6.87,0,0,0-.168,1.007,41.832,41.832,0,0,0,25.24-.685C73.457,76.6,69.22,64.994,64.822,52.951c-4.15,12.064-8.131,23.63-12.1,35.2Zm-6.535-1.606-19.538-53.6C17.832,50.164,24.537,76.433,46.184,86.543ZM105.25,52.1c.619-8.141-2.188-19.413-4.614-20.963-.27,2.994-.082,6.327-.941,9.362-2.022,7.152-4.5,14.181-6.877,21.229-2.589,7.66-5.28,15.286-7.928,22.927,12.437-7.373,19.272-18.254,20.36-32.555Z" transform="translate(-3.206 -1.386)"/></svg>