<svg xmlns="http://www.w3.org/2000/svg" xmlns:xlink="http://www.w3.org/1999/xlink" viewBox="0 0 112 296.29"><defs><style>.a{fill:none;}.b{clip-path:url(#a);}.c{fill:#88bbbc;}</style><clipPath id="a"><rect class="a" width="112" height="296.29"/></clipPath></defs><g class="b"><g transform="translate(-123 -1448)"><ellipse class="c" cx="5.419" cy="5.419" rx="5.419" ry="5.419" transform="translate(123 1448)"/><ellipse class="c" cx="5.419" cy="5.419" rx="5.419" ry="5.419" transform="translate(148.29 1448)"/><ellipse class="c" cx="5.419" cy="5.419" rx="5.419" ry="5.419" transform="translate(173.581 1448)"/><ellipse class="c" cx="5.419" cy="5.419" rx="5.419" ry="5.419" transform="translate(198.871 1448)"/><ellipse class="c" cx="5.419" cy="5.419" rx="5.419" ry="5.419" transform="translate(224.161 1448)"/><ellipse class="c" cx="5.419" cy="5.419" rx="5.419" ry="5.419" transform="translate(123 1473.29)"/><ellipse class="c" cx="5.419" cy="5.419" rx="5.419" ry="5.419" transform="translate(148.29 1473.29)"/><ellipse class="c" cx="5.419" cy="5.419" rx="5.419" ry="5.419" transform="translate(173.581 1473.29)"/><ellipse class="c" cx="5.419" cy="5.419" rx="5.419" ry="5.419" transform="translate(198.871 1473.29)"/><ellipse class="c" cx="5.419" cy="5.419" rx="5.419" ry="5.419" transform="translate(224.161 1473.29)"/><ellipse class="c" cx="5.419" cy="5.419" rx="5.419" ry="5.419" transform="translate(123 1498.581)"/><ellipse class="c" cx="5.419" cy="5.419" rx="5.419" ry="5.419" transform="translate(148.29 1498.581)"/><ellipse class="c" cx="5.419" cy="5.419" rx="5.419" ry="5.419" transform="translate(173.581 1498.581)"/><ellipse class="c" cx="5.419" cy="5.419" rx="5.419" ry="5.419" transform="translate(198.871 1498.581)"/><ellipse class="c" cx="5.419" cy="5.419" rx="5.419" ry="5.419" transform="translate(224.161 1498.581)"/><ellipse class="c" cx="5.419" cy="5.419" rx="5.419" ry="5.419" transform="translate(123 1523.871)"/><ellipse class="c" cx="5.419" cy="5.419" rx="5.419" ry="5.419" transform="translate(148.29 1523.871)"/><ellipse class="c" cx="5.419" cy="5.419" rx="5.419" ry="5.419" transform="translate(173.581 1523.871)"/><ellipse class="c" cx="5.419" cy="5.419" rx="5.419" ry="5.419" transform="translate(198.871 1523.871)"/><ellipse class="c" cx="5.419" cy="5.419" rx="5.419" ry="5.419" transform="translate(224.161 1523.871)"/><ellipse class="c" cx="5.419" cy="5.419" rx="5.419" ry="5.419" transform="translate(123 1549.161)"/><ellipse class="c" cx="5.419" cy="5.419" rx="5.419" ry="5.419" transform="translate(148.29 1549.161)"/><ellipse class="c" cx="5.419" cy="5.419" rx="5.419" ry="5.419" transform="translate(173.581 1549.161)"/><ellipse class="c" cx="5.419" cy="5.419" rx="5.419" ry="5.419" transform="translate(198.871 1549.161)"/><ellipse class="c" cx="5.419" cy="5.419" rx="5.419" ry="5.419" transform="translate(224.161 1549.161)"/><ellipse class="c" cx="5.419" cy="5.419" rx="5.419" ry="5.419" transform="translate(123 1574.452)"/><ellipse class="c" cx="5.419" cy="5.419" rx="5.419" ry="5.419" transform="translate(148.29 1574.452)"/><ellipse class="c" cx="5.419" cy="5.419" rx="5.419" ry="5.419" transform="translate(173.581 1574.452)"/><ellipse class="c" cx="5.419" cy="5.419" rx="5.419" ry="5.419" transform="translate(198.871 1574.452)"/><ellipse class="c" cx="5.419" cy="5.419" rx="5.419" ry="5.419" transform="translate(224.161 1574.452)"/></g><g transform="translate(-123 -1295)"><ellipse class="c" cx="5.419" cy="5.419" rx="5.419" ry="5.419" transform="translate(123 1448)"/><ellipse class="c" cx="5.419" cy="5.419" rx="5.419" ry="5.419" transform="translate(148.29 1448)"/><ellipse class="c" cx="5.419" cy="5.419" rx="5.419" ry="5.419" transform="translate(173.581 1448)"/><ellipse class="c" cx="5.419" cy="5.419" rx="5.419" ry="5.419" transform="translate(198.871 1448)"/><ellipse class="c" cx="5.419" cy="5.419" rx="5.419" ry="5.419" transform="translate(224.161 1448)"/><ellipse class="c" cx="5.419" cy="5.419" rx="5.419" ry="5.419" transform="translate(123 1473.29)"/><ellipse class="c" cx="5.419" cy="5.419" rx="5.419" ry="5.419" transform="translate(148.29 1473.29)"/><ellipse class="c" cx="5.419" cy="5.419" rx="5.419" ry="5.419" transform="translate(173.581 1473.29)"/><ellipse class="c" cx="5.419" cy="5.419" rx="5.419" ry="5.419" transform="translate(198.871 1473.29)"/><ellipse class="c" cx="5.419" cy="5.419" rx="5.419" ry="5.419" transform="translate(224.161 1473.29)"/><ellipse class="c" cx="5.419" cy="5.419" rx="5.419" ry="5.419" transform="translate(123 1498.581)"/><ellipse class="c" cx="5.419" cy="5.419" rx="5.419" ry="5.419" transform="translate(148.29 1498.581)"/><ellipse class="c" cx="5.419" cy="5.419" rx="5.419" ry="5.419" transform="translate(173.581 1498.581)"/><ellipse class="c" cx="5.419" cy="5.419" rx="5.419" ry="5.419" transform="translate(198.871 1498.581)"/><ellipse class="c" cx="5.419" cy="5.419" rx="5.419" ry="5.419" transform="translate(224.161 1498.581)"/><ellipse class="c" cx="5.419" cy="5.419" rx="5.419" ry="5.419" transform="translate(123 1523.871)"/><ellipse class="c" cx="5.419" cy="5.419" rx="5.419" ry="5.419" transform="translate(148.29 1523.871)"/><ellipse class="c" cx="5.419" cy="5.419" rx="5.419" ry="5.419" transform="translate(173.581 1523.871)"/><ellipse class="c" cx="5.419" cy="5.419" rx="5.419" ry="5.419" transform="translate(198.871 1523.871)"/><ellipse class="c" cx="5.419" cy="5.419" rx="5.419" ry="5.419" transform="translate(224.161 1523.871)"/><ellipse class="c" cx="5.419" cy="5.419" rx="5.419" ry="5.419" transform="translate(123 1549.161)"/><ellipse class="c" cx="5.419" cy="5.419" rx="5.419" ry="5.419" transform="translate(148.29 1549.161)"/><ellipse class="c" cx="5.419" cy="5.419" rx="5.419" ry="5.419" transform="translate(173.581 1549.161)"/><ellipse class="c" cx="5.419" cy="5.419" rx="5.419" ry="5.419" transform="translate(198.871 1549.161)"/><ellipse class="c" cx="5.419" cy="5.419" rx="5.419" ry="5.419" transform="translate(224.161 1549.161)"/><ellipse class="c" cx="5.419" cy="5.419" rx="5.419" ry="5.419" transform="translate(123 1574.452)"/><ellipse class="c" cx="5.419" cy="5.419" rx="5.419" ry="5.419" transform="translate(148.29 1574.452)"/><ellipse class="c" cx="5.419" cy="5.419" rx="5.419" ry="5.419" transform="translate(173.581 1574.452)"/><ellipse class="c" cx="5.419" cy="5.419" rx="5.419" ry="5.419" transform="translate(198.871 1574.452)"/><ellipse class="c" cx="5.419" cy="5.419" rx="5.419" ry="5.419" transform="translate(224.161 1574.452)"/></g></g></svg>