<svg xmlns="http://www.w3.org/2000/svg" viewBox="0 0 16.65 17.833"><defs><style>.a{fill:none;stroke:#5a5a5a;stroke-linecap:round;stroke-linejoin:round;stroke-width:2px;}</style></defs><path class="a" d="M7.259,14.516C3.5,15.643,3.5,12.638,2,12.262M12.518,16.77V13.863a2.532,2.532,0,0,0-.706-1.961c2.359-.263,4.838-1.157,4.838-5.259a4.086,4.086,0,0,0-1.126-2.817A3.809,3.809,0,0,0,15.455.993S14.569.73,12.518,2.105a10.052,10.052,0,0,0-5.259,0C5.208.73,4.321.993,4.321.993a3.809,3.809,0,0,0-.068,2.832,4.087,4.087,0,0,0-1.127,2.84c0,4.072,2.479,4.966,4.838,5.259a2.532,2.532,0,0,0-.706,1.938V16.77" transform="translate(-1 0.063)"/></svg>