<svg xmlns="http://www.w3.org/2000/svg" viewBox="0 0 16.971 17.002"><defs><style>.a{fill:none;stroke:#5a5a5a;stroke-linecap:round;stroke-linejoin:round;stroke-width:2px;}</style></defs><path class="a" d="M17.082,13.23v2.258a1.505,1.505,0,0,1-1.641,1.505,14.9,14.9,0,0,1-6.5-2.311,14.678,14.678,0,0,1-4.516-4.516A14.9,14.9,0,0,1,2.118,3.641,1.505,1.505,0,0,1,3.616,2H5.874A1.505,1.505,0,0,1,7.379,3.295,9.665,9.665,0,0,0,7.906,5.41,1.505,1.505,0,0,1,7.568,7l-.956.956a12.043,12.043,0,0,0,4.516,4.516l.956-.956a1.505,1.505,0,0,1,1.588-.339,9.665,9.665,0,0,0,2.115.527,1.505,1.505,0,0,1,1.295,1.528Z" transform="translate(-1.112 -1)"/></svg>